<?xml version="1.0" encoding="UTF-8" standalone="no"?>
<svg width="192px" height="203px" viewBox="0 0 192 203" version="1.1" xmlns="http://www.w3.org/2000/svg" xmlns:xlink="http://www.w3.org/1999/xlink">
    <!-- Generator: Sketch 3.8.3 (29802) - http://www.bohemiancoding.com/sketch -->
    <title>Slice 1</title>
    <desc>Created with Sketch.</desc>
    <defs></defs>
    <g id="Page-1" stroke="none" stroke-width="1" fill="none" fill-rule="evenodd">
        <g id="JWT-inspector-icon-48x48">
            <path d="M162.386,185.417 C161.635,183.348 160.458,181.374 158.861,179.492 C157.261,177.614 155.243,176.012 152.796,174.698 C150.351,173.382 147.484,172.724 144.194,172.724 L115.139,172.724 C113.073,172.724 111.379,172.208 110.064,171.171 C108.746,170.136 107.689,168.914 106.889,167.505 C106.091,166.094 105.549,164.638 105.266,163.132 C105.209,162.817 105.16,162.525 105.113,162.235 L91.841,162.235 C91.784,162.525 91.729,162.817 91.659,163.132 C91.328,164.638 90.741,166.094 89.894,167.505 C89.05,168.914 87.873,170.136 86.371,171.171 C84.865,172.208 82.984,172.724 80.728,172.724 L52.804,172.724 C49.514,172.724 46.645,173.381 44.2,174.698 C41.756,176.011 39.734,177.614 38.137,179.492 C36.537,181.374 35.362,183.347 34.61,185.417 C33.859,187.486 33.481,189.272 33.481,190.776 L33.481,202.576 L46.174,202.576 L46.174,195.854 C46.174,194.066 46.48,192.656 47.091,191.623 C47.701,190.589 48.5,189.789 49.487,189.225 C50.473,188.662 51.555,188.307 52.732,188.167 C53.907,188.026 55.012,187.955 56.047,187.955 L82.7,187.955 C86.086,187.955 88.787,187.392 90.81,186.265 C92.831,185.135 94.381,183.797 95.465,182.244 C96.544,180.693 97.272,179.095 97.649,177.448 C98.026,175.802 98.26,174.417 98.356,173.288 L98.637,173.288 C98.732,174.417 99.036,175.803 99.553,177.448 C100.07,179.094 100.869,180.693 101.95,182.244 C103.031,183.797 104.513,185.135 106.392,186.265 C108.271,187.392 110.624,187.955 113.444,187.955 L140.945,187.955 C141.979,187.955 143.084,188.026 144.26,188.167 C145.432,188.307 146.516,188.661 147.501,189.225 C148.489,189.789 149.289,190.589 149.899,191.623 C150.509,192.656 150.813,194.066 150.817,195.854 L150.817,202.576 L163.508,202.576 L163.508,190.776 C163.513,189.272 163.137,187.486 162.386,185.417 L162.386,185.417 Z" id="Shape" fill="#FFFFFF"></path>
            <g id="Group">
                <path d="M108.549,126.678 C111.313,126.678 113.491,124.448 113.491,121.705 C113.491,118.985 111.312,116.75 108.549,116.75 C105.791,116.75 103.579,118.985 103.579,121.705 C103.579,124.447 105.791,126.678 108.549,126.678 L108.549,126.678 Z" id="Shape"></path>
                <path d="M98.802,151.296 C120.627,151.296 138.392,133.543 138.392,111.732 C138.392,102.538 135.193,93.632 129.347,86.565 C122.918,83.877 117.433,82.526 112.607,82.466 L112.197,82.466 C102.817,82.466 92.218,86.671 81.96,90.721 C77.933,92.317 74.164,93.84 70.459,95.069 L61.685,98.035 C60.046,102.425 59.222,107.003 59.222,111.732 C59.221,133.543 76.958,151.296 98.802,151.296 L98.802,151.296 Z M117.06,92.86 C122.248,92.86 126.393,97.052 126.393,102.173 C126.393,107.331 122.247,111.513 117.06,111.513 C111.945,111.513 107.784,107.331 107.784,102.173 C107.783,97.053 111.944,92.86 117.06,92.86 L117.06,92.86 Z M108.549,116.75 C111.313,116.75 113.491,118.985 113.491,121.705 C113.491,124.447 111.312,126.678 108.549,126.678 C105.791,126.678 103.579,124.448 103.579,121.705 C103.579,118.985 105.791,116.75 108.549,116.75 L108.549,116.75 Z" id="Shape" fill="#FFFFFF"></path>
                <path d="M131.588,39.615 C140.004,42.855 149.155,45.659 158.001,48.861 C157.379,46.237 156.084,42.933 154.046,38.831 C147.382,25.383 145.838,24.406 136.707,14.674 C118.31,-4.736 82.908,-2.865 60.967,13.473 C38.778,29.978 36.32,44.475 29.342,69.736 C46.682,62.988 64.052,56.231 81.338,49.469 C96.687,43.507 114.873,33.14 131.588,39.615 L131.588,39.615 Z" id="Shape" fill="#FFFFFF"></path>
                <path d="M117.06,111.513 C122.248,111.513 126.393,107.331 126.393,102.173 C126.393,97.053 122.247,92.86 117.06,92.86 C111.945,92.86 107.784,97.052 107.784,102.173 C107.783,107.331 111.944,111.513 117.06,111.513 L117.06,111.513 Z" id="Shape"></path>
                <path d="M163.594,112.824 C163.594,135.312 152.114,155.12 134.7,166.719 L144.193,166.719 C148.472,166.719 152.324,167.625 155.639,169.409 C157.505,170.413 159.179,171.588 160.686,172.888 C175.776,157.367 185.073,136.186 185.073,112.825 C185.073,112.466 185.057,112.112 185.049,111.76 C180.522,111.266 175.213,107.723 171.945,106.047 C168.911,104.472 165.729,102.646 162.436,100.708 C163.182,104.635 163.594,108.677 163.594,112.824 Z" id="Shape" fill="#FFFFFF"></path>
                <path d="M113.447,193.963 C109.537,193.963 106.125,193.107 103.304,191.415 C101.533,190.352 99.993,189.121 98.697,187.74 C97.331,189.167 95.67,190.429 93.737,191.511 C90.778,193.16 87.168,193.963 82.702,193.963 L69.794,193.963 C74.623,195.693 79.658,196.993 84.843,197.843 C89.417,198.597 94.11,199.002 98.9,199.002 C103.677,199.002 108.357,198.597 112.921,197.85 C118.113,196.999 123.154,195.697 127.99,193.963 L113.447,193.963 L113.447,193.963 Z" id="Shape" fill="#FFFFFF"></path>
                <path d="M191.132,87.131 C190.239,78.433 185.248,69.542 177.963,66.727 C171.785,63.271 164.999,60.522 158.001,58.001 C149.155,54.813 140.004,51.999 131.588,48.761 C114.873,42.261 96.687,52.661 81.338,58.632 C64.052,65.383 46.682,72.134 29.342,78.869 C27.01,79.801 24.662,80.707 22.342,81.624 C17.662,83.437 12.638,85.065 8.184,87.464 C1.585,91.014 -0.954,96.963 0.674,100.811 C2.055,104.075 6.433,105.828 13.899,103.312 C31.668,97.345 49.434,91.382 67.182,85.442 C81.248,80.716 98.328,71.632 113.536,71.803 C132.773,72.05 153.64,88.15 170.06,96.669 C175.229,99.316 185.624,106.767 189.526,98.538 C191.076,95.201 191.549,91.188 191.132,87.131 L191.132,87.131 Z" id="Shape" fill="#FFFFFF"></path>
                <path d="M34.198,112.824 C34.198,110.242 34.361,107.701 34.656,105.201 C34.699,104.841 34.735,104.482 34.783,104.124 C27.892,106.438 21.004,108.745 14.109,111.059 C13.659,111.21 13.222,111.34 12.795,111.463 C12.789,111.824 12.77,112.182 12.758,112.545 C12.758,112.637 12.751,112.729 12.751,112.824 C12.751,135.993 21.882,157.023 36.742,172.507 C38.138,171.36 39.669,170.318 41.351,169.41 C44.671,167.625 48.524,166.719 52.803,166.719 L63.096,166.719 C45.682,155.12 34.198,135.313 34.198,112.824 L34.198,112.824 Z" id="Shape" fill="#FFFFFF"></path>
            </g>
        </g>
    </g>
</svg>